# xmcd
#
# Track frame offsets:
#	150
#	30999
#	65162
#	89847
#	111379
#	137110
#	166214
#	194496
#	211833
#	233680
#	255231
#	278486
#	295343
#	318181
#
# Disc length: 4642 seconds
#
# Revision: 0
# Processed by: cddbd v1.5.2PL0 Copyright (c) Steve Scherf et al.
# Submitted via: EZCDAudioConverter 3.1.7.1
#
DISCID=c912200e
DTITLE=Frank Cottrell Boyce - Cosmic
DYEAR=2009
DGENRE=Books and Spoken
TTITLE0=Disc 3 Track 1
TTITLE1=Disc 3 Track 2
TTITLE2=Disc 3 Track 3
TTITLE3=Disc 3 Track 4
TTITLE4=Disc 3 Track 5
TTITLE5=Disc 3 Track 6
TTITLE6=Disc 3 Track 7
TTITLE7=Disc 3 Track 8
TTITLE8=Disc 3 Track 9
TTITLE9=Disc 3 Track 10
TTITLE10=Disc 3 Track 11
TTITLE11=Disc 3 Track 12
TTITLE12=Disc 3 Track 13
TTITLE13=Disc 3 Track 14
EXTD=
EXTT0=
EXTT1=
EXTT2=
EXTT3=
EXTT4=
EXTT5=
EXTT6=
EXTT7=
EXTT8=
EXTT9=
EXTT10=
EXTT11=
EXTT12=
EXTT13=
PLAYORDER=
